<?xml version="1.0" encoding="UTF-8" standalone="no"?>
<!DOCTYPE svg PUBLIC "-//W3C//DTD SVG 1.1//EN" "http://www.w3.org/Graphics/SVG/1.1/DTD/svg11.dtd">
<svg width="100%" height="100%" viewBox="0 0 16 16" version="1.1" xmlns="http://www.w3.org/2000/svg" xmlns:xlink="http://www.w3.org/1999/xlink" xml:space="preserve" xmlns:serif="http://www.serif.com/" style="fill-rule:evenodd;clip-rule:evenodd;stroke-linecap:round;stroke-linejoin:round;stroke-miterlimit:1.5;">
    <g id="V2">
        <g transform="matrix(0.833333,0,0,0.833333,2.45904,0.00460918)">
            <g transform="matrix(1.2,0,0,0.894737,-1.8,1.31579)">
                <path d="M14,2.802C14,2.359 13.732,2 13.402,2L9.598,2C9.268,2 9,2.359 9,2.802L9,3.198C9,3.641 9.268,4 9.598,4L13.402,4C13.732,4 14,3.641 14,3.198L14,2.802Z" style="fill:rgb(236,97,66);"/>
            </g>
            <g transform="matrix(5.80096e-18,1.2,-0.894737,-4.69601e-18,14.6842,-9.8)">
                <path d="M14,2.806C14,2.361 13.731,2 13.399,2L9.601,2C9.269,2 9,2.361 9,2.806L9,3.194C9,3.639 9.269,4 9.601,4L13.399,4C13.731,4 14,3.639 14,3.194L14,2.806Z" style="fill:rgb(236,97,66);"/>
            </g>
        </g>
        <g transform="matrix(1.39991,0,0,1.38591,-3.93361,-1.46536)">
            <path d="M12.049,11.921C11.884,11.994 11.637,12.029 11.465,11.943L6.763,9.337L10.096,9.346L8.017,4.694L4.978,11.549C4.818,11.929 4.461,12.086 4.049,11.948C3.514,11.768 3.475,11.325 3.639,10.955L7.012,3.347C7.192,2.947 7.593,2.692 8.032,2.699C8.467,2.705 8.857,2.966 9.028,3.365L12.419,10.953C12.584,11.322 12.418,11.756 12.049,11.921L12.049,11.921Z" style="fill:rgb(236,97,66);stroke:black;stroke-opacity:0.27;stroke-width:0.04px;"/>
        </g>
    </g>
</svg>
