<?xml version="1.0" encoding="UTF-8" standalone="no"?>
<!DOCTYPE svg PUBLIC "-//W3C//DTD SVG 1.1//EN" "http://www.w3.org/Graphics/SVG/1.1/DTD/svg11.dtd">
<svg width="100%" height="100%" viewBox="0 0 16 16" version="1.1" xmlns="http://www.w3.org/2000/svg" xmlns:xlink="http://www.w3.org/1999/xlink" xml:space="preserve" xmlns:serif="http://www.serif.com/" style="fill-rule:evenodd;clip-rule:evenodd;stroke-linecap:round;stroke-linejoin:round;stroke-miterlimit:1.5;">
    <g transform="matrix(1.34392,0,0,1.33048,-2.77559,-1.77633)">
        <g id="V2">
            <path d="M12.049,11.921C11.884,11.994 11.637,12.029 11.465,11.943L6.763,9.337L10.096,9.346L8.017,4.694L4.978,11.549C4.818,11.929 4.461,12.086 4.049,11.948C3.514,11.768 3.475,11.325 3.639,10.955L7.012,3.347C7.192,2.947 7.593,2.692 8.032,2.699C8.467,2.705 8.857,2.966 9.028,3.365L12.419,10.953C12.584,11.322 12.418,11.756 12.049,11.921L12.049,11.921Z" style="fill:rgb(242,106,74);stroke:rgb(255,153,153);stroke-width:0.11px;"/>
        </g>
    </g>
</svg>
